<?xml version="1.0" encoding="utf-8"?>
<!-- Generated by Layerhero SVG Exporter: http://www.layerhero.com/photoshop-svg-exporter -->
<!DOCTYPE svg PUBLIC "-//W3C//DTD SVG 1.1//EN" "http://www.w3.org/Graphics/SVG/1.1/DTD/svg11.dtd">
<svg version="1.1" baseProfile="full" xmlns="http://www.w3.org/2000/svg" xmlns:xlink="http://www.w3.org/1999/xlink" xmlns:ev="http://www.w3.org/2001/xml-events" width="1196" height="93" viewBox="0 0 1196 93">

<filter filterUnits="userSpaceOnUse" id="Filter_0" x="0px" y="0px" width="1196px" height="93px"  >
  <feOffset in="SourceAlpha" dx="0.225px" dy="0.974px" />
  <feGaussianBlur result="blurOut" stdDeviation="0" />
  <feFlood flood-color="rgb( 0, 0, 0 )" result="floodOut" />
  <feComposite operator="atop" in="floodOut" in2="blurOut" />
  <feComponentTransfer><feFuncA type="linear" slope="0.45"/></feComponentTransfer>
  <feMerge>
    <feMergeNode/>
    <feMergeNode in="SourceGraphic"/>
  </feMerge>
</filter>

<g transform="scale(NaN)" ><g filter="url(#Filter_0)">
<path fill-rule="evenodd"  opacity="0.6" fill="rgb( 0, 0, 0 )" class="single-answer-box-svg"
 d="M1194.010,50.765 C1194.010,50.765 1173.605,86.558 1173.605,86.558 C1171.855,89.603 1168.730,91.940 1165.232,91.941 C1165.232,91.941 1149.911,91.967 1149.911,91.967 C1149.911,91.967 1149.911,91.986 1149.911,91.986 C1149.911,91.986 1138.376,91.986 1138.376,91.986 C1138.376,91.986 1123.095,92.011 1123.095,92.011 C1122.842,92.011 1122.585,92.001 1122.326,91.986 C1122.326,91.986 46.420,91.986 46.420,91.986 C46.420,91.986 31.139,92.011 31.139,92.011 C27.641,92.010 23.544,90.568 21.801,87.533 C21.801,87.533 1.173,51.611 1.173,51.611 C-0.572,48.571 0.357,44.285 2.104,41.247 C2.104,41.247 23.213,5.052 23.213,5.052 C24.963,2.007 28.433,-0.007 31.931,-0.009 C31.931,-0.009 44.992,0.054 44.992,0.054 C44.992,0.054 44.992,-0.006 44.992,-0.006 C44.992,-0.006 1123.755,-0.006 1123.755,-0.006 C1123.799,-0.007 1123.844,-0.009 1123.888,-0.009 C1123.888,-0.009 1124.395,-0.006 1124.395,-0.006 C1124.395,-0.006 1149.911,-0.006 1149.911,-0.006 C1149.911,-0.006 1149.911,0.116 1149.911,0.116 C1149.911,0.116 1164.805,0.188 1164.805,0.188 C1168.301,0.183 1171.181,2.257 1172.924,5.292 C1172.924,5.292 1193.549,41.209 1193.549,41.209 C1195.294,44.249 1195.754,47.722 1194.010,50.765 Z"/>
</g>
</g></svg>
